<?xml version="1.0" encoding="UTF-8"?><svg id="Layer_1" xmlns="http://www.w3.org/2000/svg" viewBox="0 0 600 200"><path d="M426.15,151.77c-.6-.55-.75-1.29-.93-2.02-1.06-4.26-2.13-8.52-3.2-12.77-3.43-13.71-6.86-27.42-10.31-41.13-.16-.62-.42-1.2-.65-1.8-.03-.07-.19-.17-.27-.15-.17,.05-.42,.13-.47,.26-.28,.81-.54,1.62-.75,2.46-4.47,17.31-8.94,34.62-13.41,51.93-1,3.85-.65,3.43-4.45,3.43-8.9,.02-17.79,0-26.69,0-.86,0-1.72-.01-2.56-.1-.27-.03-.62-.28-.75-.52-.34-.66-.63-1.36-.86-2.07-1.85-5.48-3.7-10.96-5.53-16.44-5.1-15.23-10.19-30.47-15.29-45.7-3.43-10.25-6.88-20.51-10.31-30.77-.3-.91-.58-1.84-.86-2.76-.14-.46,.15-.92,.56-.95,.54-.04,1.07-.07,1.6-.08h30.23c.53,0,1.06,.04,1.46,.06,.83,.53,.97,1.28,1.14,2,.88,3.53,1.75,7.07,2.61,10.6,3.89,15.91,7.78,31.82,11.71,47.73,.28,1.13,.36,2.33,1.03,3.35,.04,.07,.18,.09,.28,.11,.1,.02,.26,.04,.29-.01,.16-.27,.35-.54,.42-.84,.86-3.43,1.71-6.86,2.54-10.29,2.66-10.93,5.3-21.85,7.96-32.77,1.39-5.72,2.81-11.44,4.21-17.15,.1-.42,.17-.84,.29-1.25,.35-1.24,.68-1.5,2.07-1.51,2.79-.02,5.57-.01,8.36-.01h18.01c.96,0,1.93,.03,2.89,.07,.47,.02,.81,.32,.96,.73,.26,.7,.49,1.42,.67,2.14,.65,2.59,1.28,5.2,1.93,7.8,4.04,16.31,8.08,32.63,12.13,48.95,.34,1.34,.72,2.68,1.1,4.01,.02,.09,.16,.23,.21,.22,.2-.05,.47-.1,.55-.24,.21-.37,.36-.77,.46-1.18,3.87-16.03,7.73-32.06,11.6-48.08,.9-3.75,1.79-7.5,2.7-11.24,.2-.83,.44-1.66,.75-2.45,.1-.26,.44-.55,.69-.58,.85-.11,1.7-.13,2.56-.13,7.18,0,14.37,0,21.55,0,2.03,0,4.08-.01,6.11,0,.63,0,1.26,.09,1.92,.15,.05,.4,.17,.73,.11,1.02-.17,.73-.43,1.43-.67,2.14-6.97,20.59-13.96,41.18-20.92,61.77-3.5,10.35-6.99,20.69-10.48,31.05-.24,.71-.47,1.42-.74,2.12-.25,.63-.67,1.08-1.42,1.1-.75,.01-1.5,.03-2.25,.03h-27.02c-.96,0-1.93,.13-2.85-.22h-.02Z" style="fill:#1359a0;"/><path d="M138.54,158.06c-9.41,.05-18.24-2.23-26.64-6.36-.77-.38-1.52-.79-2.31-1.12-.26-.11-.66-.07-.91,.04-.67,.32-1.32,.71-1.96,1.1-6.27,3.86-13.03,6.47-20.26,7.86-3.91,.75-7.85,1.05-11.83,.96-15.47-.32-28.84-5.86-40.04-16.47-8.29-7.85-13.79-17.43-16.58-28.53-1.44-5.75-2.16-11.61-1.74-17.53,.96-13.45,5.65-25.43,14.55-35.66,8.74-10.04,19.69-16.37,32.66-19.23,2.29-.5,4.62-.98,7-.95,3.85-.67,7.7-.29,11.54,.07,2.02,.19,4.04,.55,6.02,.98,5.26,1.13,10.29,2.94,15.05,5.46,.38,.2,.75,.41,1.14,.58,.51,.23,1.04,.26,1.54-.02,.47-.26,.91-.57,1.36-.85,7.29-4.55,15.19-7.4,23.7-8.54,2.65-.35,5.34-.46,8.02-.45,14.15,.06,26.72,4.65,37.58,13.67,10.68,8.87,17.4,20.2,20.26,33.8,1.09,5.18,1.53,10.41,1.13,15.66-.53,6.99-2.12,13.75-5.03,20.17-5.39,11.9-13.73,21.14-25.08,27.61-6.3,3.59-13.03,5.97-20.22,6.99-1.16,.16-2.33,.38-3.5,.46-1.82,.13-3.64,.17-5.46,.26v.02Zm-9.7-88.03c.29,.37,.58,.68,.78,1.05,.55,1.04,1.08,2.1,1.59,3.16,1.44,3,2.79,6.03,3.75,9.21,1.78,5.93,2.23,11.98,1.75,18.13-.27,3.42-.61,6.83-1.18,10.21-.3,1.79-.72,3.58-1.26,5.31-1.95,6.3-4.88,12.11-8.84,17.39-1.96,2.61-1.71,2.49,1.16,3.52,2.43,.87,4.94,1.46,7.48,1.82,5.02,.72,10.04,.63,15.02-.43,10.45-2.22,19.21-7.29,25.77-15.75,8.46-10.9,11.1-23.28,8.14-36.7-2.09-9.51-7.04-17.43-14.54-23.67-7.76-6.46-16.76-9.77-26.84-10.15-3.66-.14-7.27,.31-10.83,1.12-8.04,1.82-15.07,5.57-20.86,11.41-6.84,6.89-11.02,15.18-12.46,24.84-.83,5.59-.55,11.1,.76,16.58,.68,2.82,1.62,5.55,2.88,8.16,.6,1.24,.3,1.66-.71,2.41-1.29,.95-2.61,1.87-3.89,2.84-1.72,1.29-3.4,2.6-5.11,3.89-.51,.39-1.05,.75-1.57,1.11-.35,.24-.88,.12-1.1-.29-.93-1.81-1.89-3.61-2.75-5.44-1.88-3.99-3.36-8.12-4.01-12.5-.26-1.69-.34-3.41-.55-5.11-.25-1.93-.23-3.85-.06-5.77,.09-1.07,.21-2.13,.24-3.2,.09-2.9,.64-5.75,.98-8.62,.14-1.16,.42-2.31,.72-3.45,.93-3.53,2.23-6.92,3.83-10.21,1.59-3.29,3.52-6.38,5.64-9.35,.37-.52,.75-1.04,1.11-1.57,.26-.39,.15-.91-.22-1.1-.39-.19-.76-.41-1.16-.55-8.74-3.08-17.6-3.58-26.54-1.07-11.24,3.16-19.91,9.74-25.85,19.82-4.12,6.99-6.15,14.55-6.13,22.67,0,1.93,.23,3.85,.49,5.76,.95,7.05,3.5,13.5,7.71,19.18,8.11,10.95,18.96,17.07,32.65,17.99,3.76,.26,7.5,.06,11.19-.71,9.77-2.01,18.05-6.67,24.59-14.2,6.23-7.18,9.71-15.59,10.4-25.09,.54-7.4-.59-14.53-3.71-21.3-.22-.49-.43-.98-.58-1.49-.05-.17,.03-.45,.15-.6,.26-.33,.56-.65,.9-.91,3.3-2.56,6.61-5.11,9.93-7.65,.34-.26,.73-.44,1.16-.68h0Z" style="fill:#1359a0;"/><path d="M565.08,114.49c.3,.12,.55,.14,.68,.28,6.08,6.33,12.06,12.76,17.9,19.06,.16,.72-.21,1.01-.49,1.31-4.34,4.52-9.23,8.31-14.68,11.38-5.26,2.96-10.79,5.21-16.7,6.49-2.83,.62-5.67,1.13-8.59,1.11-1.82-.01-3.65,.04-5.46-.03-9.97-.4-19.19-3.17-27.44-8.85-10.32-7.11-16.9-16.84-20.11-28.91-1.61-6.06-2.16-12.24-1.68-18.48,.95-12.3,5.57-23.01,14.29-31.86,6.47-6.58,14.24-10.93,23.1-13.36,4.97-1.37,10.05-2.15,15.23-2.04,.32,0,.64,0,.96,0,6.3-.19,12.34,1.1,18.24,3.18,5.89,2.08,11.42,4.87,16.47,8.57,2.17,1.59,4.15,3.39,6.05,5.28,.37,.37,.68,.82,1,1.21-1.52,2.2-12.13,14.94-17.51,21.04-.27,.31-.6,.58-.95,.92-.32-.21-.6-.34-.8-.55-.93-1.04-1.77-2.16-2.75-3.14-3.37-3.38-7.22-6.04-11.64-7.87-4.31-1.79-8.73-2.05-13.21-.73-5.66,1.67-9.69,5.29-12.37,10.51-1.14,2.21-1.86,4.58-2.23,7.01-.68,4.48-.63,8.97,.49,13.4,1.02,4.03,2.91,7.57,5.9,10.51,4.5,4.42,9.92,6.18,16.14,5.55,3.35-.34,6.46-1.48,9.43-3.02,2.96-1.54,5.68-3.44,8.16-5.67,.86-.78,1.74-1.56,2.58-2.3h0Z" style="fill:#1359a0;"/><path d="M246.57,102.11V56.77c0-1.07,.07-2.13,.14-3.2,.02-.43,.44-.85,.82-.86,1.07-.04,2.14-.09,3.21-.09h72.04c3.8,0,3.73-.31,3.73,3.62,0,6.11,0,12.22-.01,18.33,0,.74-.11,1.49-.21,2.23-.02,.17-.25,.35-.42,.45-.18,.1-.41,.14-.62,.15-1.07,.02-2.14,.04-3.22,.04h-38.59c-1.07,0-2.14,.04-3.21,.08-.35,.01-.85,.47-.9,.8-.05,.32-.12,.63-.12,.95-.01,4.5-.01,9,0,13.51,0,.32,.05,.64,.09,.96,.06,.49,.58,1.06,1.04,1.08,1.07,.06,2.14,.1,3.21,.1,11.79,0,23.58,0,35.37,0,.96,0,1.93,0,2.89,.02,1.21,.04,1.57,.37,1.62,1.48,.02,.43,.02,.86,.02,1.29v18.97c0,.64-.02,1.29-.13,1.92-.05,.26-.34,.53-.59,.67-.27,.14-.62,.16-.94,.17-1.07,.02-2.14,.03-3.22,.03-11.68,0-23.37,0-35.05,0-1.07,0-2.14,.06-3.2,.12-.48,.02-1.01,.58-1.03,1.08-.05,.96-.09,1.93-.09,2.89,0,7.83,0,15.65,0,23.48,0,.86,.01,1.72,0,2.57-.04,2.21-.18,2.36-2.4,2.36-9.22,.01-18.44,0-27.66,0-.43,0-.86-.02-1.28-.05-.65-.04-1.13-.57-1.18-1.28-.03-.43-.05-.86-.06-1.28,0-.86,0-1.72,0-2.57v-44.7h-.02Z" style="fill:#1359a0;"/></svg>