<?xml version="1.0" encoding="UTF-8"?><svg id="Layer_1" xmlns="http://www.w3.org/2000/svg" viewBox="0 0 1527.23 1527.23"><path d="M941.56,644.55c-.96-.88-1.2-2.07-1.49-3.24-1.71-6.84-3.43-13.69-5.14-20.53-5.52-22.04-11.03-44.07-16.57-66.11-.25-.99-.67-1.93-1.05-2.89-.05-.12-.31-.28-.43-.24-.27,.08-.68,.21-.75,.42-.45,1.3-.86,2.61-1.2,3.95-7.19,27.82-14.37,55.65-21.55,83.47-1.6,6.19-1.05,5.51-7.16,5.52-14.3,.03-28.6,.01-42.9,0-1.38,0-2.76-.02-4.12-.16-.44-.05-1-.45-1.2-.84-.55-1.06-1.01-2.18-1.39-3.32-2.98-8.8-5.94-17.61-8.89-26.42-8.2-24.48-16.38-48.97-24.58-73.45-5.52-16.48-11.05-32.96-16.57-49.45-.49-1.47-.94-2.95-1.38-4.43-.22-.74,.24-1.48,.9-1.53,.86-.06,1.72-.12,2.57-.13,16.19,0,32.39,0,48.58,0,.85,0,1.71,.07,2.35,.1,1.33,.85,1.56,2.06,1.84,3.21,1.41,5.68,2.81,11.36,4.2,17.04,6.26,25.57,12.51,51.15,18.82,76.71,.45,1.81,.58,3.75,1.65,5.38,.07,.11,.29,.14,.45,.17,.16,.03,.42,.06,.46-.02,.26-.43,.56-.87,.68-1.35,1.38-5.51,2.75-11.02,4.09-16.54,4.27-17.56,8.52-35.12,12.79-52.67,2.24-9.2,4.51-18.38,6.77-27.57,.16-.67,.28-1.35,.47-2.01,.56-2,1.09-2.41,3.32-2.43,4.48-.03,8.96-.02,13.44-.02,9.65,0,19.3,0,28.94,0,1.55,0,3.1,.05,4.65,.11,.76,.03,1.3,.51,1.55,1.17,.42,1.13,.78,2.28,1.08,3.44,1.05,4.17,2.06,8.35,3.1,12.53,6.5,26.22,12.99,52.45,19.5,78.67,.54,2.16,1.16,4.3,1.76,6.44,.04,.14,.25,.37,.33,.35,.32-.08,.76-.16,.89-.39,.33-.59,.58-1.24,.74-1.89,6.22-25.76,12.43-51.52,18.64-77.28,1.45-6.02,2.87-12.05,4.34-18.07,.32-1.33,.71-2.66,1.2-3.94,.16-.41,.7-.88,1.11-.93,1.36-.17,2.74-.21,4.12-.21,11.54-.01,23.09,0,34.63,0,3.27,0,6.55-.02,9.82,.01,1.01,0,2.03,.15,3.08,.24,.08,.64,.28,1.18,.17,1.64-.28,1.17-.69,2.3-1.07,3.44-11.21,33.09-22.43,66.18-33.63,99.28-5.63,16.63-11.23,33.26-16.84,49.9-.39,1.14-.75,2.29-1.19,3.41-.4,1.02-1.08,1.74-2.28,1.76-1.21,.02-2.41,.05-3.62,.05-14.47,0-28.94,0-43.42,0-1.54,0-3.1,.21-4.58-.35Z" style="fill:#1359a0;"/><path d="M479.31,654.66c-15.12,.08-29.32-3.58-42.82-10.22-1.24-.61-2.45-1.27-3.71-1.8-.42-.17-1.06-.12-1.47,.07-1.08,.51-2.12,1.14-3.15,1.77-10.08,6.21-20.94,10.4-32.56,12.64-6.28,1.21-12.62,1.68-19.01,1.54-24.86-.52-46.36-9.42-64.36-26.47-13.33-12.62-22.16-28.02-26.64-45.85-2.32-9.24-3.47-18.66-2.79-28.17,1.54-21.62,9.08-40.88,23.38-57.31,14.04-16.13,31.65-26.31,52.49-30.9,3.68-.81,7.42-1.58,11.25-1.53,6.19-1.08,12.37-.47,18.54,.11,3.25,.3,6.49,.88,9.68,1.57,8.46,1.81,16.54,4.73,24.19,8.78,.61,.32,1.21,.66,1.84,.94,.82,.37,1.67,.42,2.48-.03,.75-.42,1.46-.91,2.19-1.37,11.71-7.31,24.42-11.9,38.09-13.72,4.26-.56,8.59-.74,12.89-.72,22.75,.09,42.95,7.47,60.4,21.97,17.16,14.26,27.96,32.47,32.57,54.33,1.75,8.32,2.46,16.73,1.82,25.17-.85,11.23-3.41,22.1-8.08,32.41-8.67,19.13-22.06,33.97-40.31,44.38-10.12,5.77-20.94,9.6-32.5,11.23-1.87,.26-3.74,.61-5.62,.74-2.92,.21-5.85,.28-8.77,.41Zm-15.57-141.49c.46,.6,.94,1.09,1.25,1.68,.89,1.67,1.73,3.37,2.55,5.08,2.31,4.82,4.48,9.69,6.02,14.81,2.86,9.53,3.59,19.26,2.82,29.14-.43,5.49-.98,10.98-1.9,16.41-.49,2.88-1.16,5.75-2.02,8.53-3.13,10.12-7.84,19.47-14.2,27.95-3.15,4.2-2.75,4,1.87,5.65,3.9,1.4,7.94,2.35,12.02,2.93,8.07,1.15,16.13,1.02,24.14-.69,16.79-3.57,30.88-11.72,41.42-25.31,13.6-17.52,17.84-37.41,13.09-58.99-3.36-15.28-11.32-28.02-23.37-38.05-12.48-10.38-26.93-15.71-43.14-16.32-5.89-.23-11.68,.5-17.41,1.8-12.92,2.93-24.22,8.95-33.53,18.34-10.99,11.08-17.71,24.4-20.03,39.92-1.34,8.99-.89,17.84,1.22,26.65,1.09,4.54,2.6,8.92,4.63,13.12,.97,2,.48,2.67-1.14,3.87-2.08,1.53-4.19,3.01-6.26,4.56-2.76,2.07-5.47,4.18-8.22,6.26-.82,.62-1.68,1.2-2.53,1.78-.57,.39-1.42,.19-1.76-.47-1.5-2.91-3.03-5.8-4.42-8.75-3.02-6.41-5.4-13.05-6.45-20.09-.41-2.72-.55-5.48-.89-8.21-.4-3.1-.37-6.18-.09-9.28,.15-1.72,.33-3.43,.39-5.15,.15-4.66,1.03-9.24,1.58-13.85,.23-1.87,.68-3.72,1.16-5.55,1.49-5.68,3.59-11.12,6.15-16.41,2.56-5.29,5.65-10.25,9.06-15.02,.6-.84,1.21-1.67,1.79-2.52,.42-.62,.24-1.47-.36-1.76-.62-.31-1.22-.66-1.86-.89-14.04-4.95-28.28-5.76-42.65-1.72-18.06,5.08-32,15.65-41.55,31.86-6.62,11.24-9.89,23.39-9.86,36.44,0,3.11,.37,6.18,.78,9.25,1.53,11.33,5.62,21.69,12.39,30.83,13.03,17.6,30.48,27.43,52.47,28.92,6.05,.41,12.05,.09,17.98-1.14,15.7-3.23,29.01-10.72,39.52-22.83,10.02-11.54,15.6-25.06,16.72-40.33,.87-11.89-.95-23.35-5.96-34.24-.36-.78-.69-1.58-.94-2.4-.08-.28,.05-.72,.24-.96,.42-.53,.9-1.04,1.44-1.46,5.31-4.12,10.63-8.22,15.96-12.3,.54-.41,1.17-.7,1.87-1.1Z" style="fill:#1359a0;"/><path d="M1164.85,584.63c.48,.19,.88,.23,1.09,.45,9.78,10.18,19.39,20.51,28.77,30.63,.25,1.16-.33,1.63-.79,2.11-6.97,7.26-14.83,13.36-23.6,18.29-8.45,4.75-17.35,8.37-26.84,10.43-4.55,.99-9.12,1.82-13.8,1.79-2.93-.02-5.86,.07-8.78-.05-16.02-.65-30.85-5.09-44.11-14.22-16.58-11.42-27.17-27.07-32.32-46.46-2.59-9.74-3.47-19.68-2.7-29.7,1.53-19.77,8.96-36.98,22.96-51.2,10.4-10.57,22.89-17.56,37.12-21.48,7.99-2.2,16.15-3.45,24.48-3.28,.52,.01,1.03,.01,1.55,0,10.12-.3,19.84,1.76,29.32,5.11,9.47,3.34,18.36,7.82,26.47,13.78,3.48,2.56,6.67,5.45,9.73,8.48,.6,.6,1.09,1.31,1.61,1.95-2.45,3.54-19.5,24.02-28.15,33.82-.44,.5-.96,.93-1.53,1.48-.51-.34-.97-.54-1.28-.89-1.49-1.67-2.85-3.47-4.42-5.05-5.41-5.43-11.61-9.71-18.71-12.65-6.93-2.87-14.03-3.3-21.23-1.18-9.1,2.69-15.58,8.51-19.88,16.89-1.83,3.56-2.99,7.36-3.58,11.27-1.1,7.2-1.01,14.42,.79,21.54,1.64,6.48,4.68,12.17,9.49,16.89,7.24,7.1,15.94,9.93,25.94,8.92,5.38-.55,10.38-2.38,15.15-4.85,4.76-2.47,9.13-5.53,13.11-9.12,1.39-1.26,2.8-2.5,4.14-3.69Z" style="fill:#1359a0;"/><path d="M652.94,564.72c0-24.29,0-48.58,0-72.87,0-1.72,.12-3.43,.22-5.15,.04-.69,.7-1.36,1.31-1.38,1.72-.07,3.44-.14,5.16-.14,19.81,0,39.62,0,59.44,0,18.78,0,37.56,0,56.34,0,6.11,0,6-.5,5.99,5.82-.01,9.82,0,19.64-.02,29.46,0,1.19-.17,2.39-.34,3.58-.04,.28-.4,.57-.68,.73-.29,.16-.66,.23-.99,.24-1.72,.04-3.44,.07-5.17,.07-20.67,0-41.35,0-62.02,0-1.72,0-3.44,.07-5.16,.13-.57,.02-1.36,.76-1.44,1.29-.08,.51-.2,1.02-.2,1.53-.02,7.24-.02,14.47-.01,21.71,0,.51,.08,1.03,.15,1.54,.1,.79,.93,1.7,1.67,1.74,1.72,.09,3.44,.16,5.16,.16,18.95,.01,37.9,0,56.85,0,1.55,0,3.1,0,4.65,.04,1.95,.06,2.52,.6,2.6,2.38,.03,.69,.04,1.38,.04,2.07,0,10.16,0,20.33,0,30.49,0,1.03-.03,2.07-.21,3.08-.08,.41-.54,.85-.95,1.07-.43,.23-1,.26-1.51,.28-1.72,.04-3.44,.05-5.17,.05-18.78,0-37.56,0-56.34,.01-1.72,0-3.44,.09-5.15,.19-.77,.04-1.62,.94-1.66,1.74-.08,1.55-.15,3.1-.15,4.64-.01,12.58,0,25.15,0,37.73,0,1.38,.02,2.76-.01,4.13-.07,3.55-.29,3.8-3.86,3.8-14.82,.02-29.63,.01-44.45,0-.69,0-1.38-.03-2.06-.08-1.04-.07-1.82-.91-1.9-2.06-.05-.69-.08-1.38-.09-2.06-.01-1.38,0-2.76,0-4.13,0-23.95,0-47.89,0-71.84Z" style="fill:#1359a0;"/></svg>