<?xml version="1.0" encoding="UTF-8"?><svg id="Layer_1" xmlns="http://www.w3.org/2000/svg" viewBox="0 0 200.15 42.71"><path d="M144.55,39.61c-.21-.19-.26-.45-.33-.71-.38-1.5-.75-3-1.13-4.5-1.21-4.83-2.42-9.67-3.63-14.5-.05-.22-.15-.42-.23-.63-.01-.03-.07-.06-.09-.05-.06,.02-.15,.05-.16,.09-.1,.29-.19,.57-.26,.87-1.58,6.1-3.15,12.21-4.73,18.31-.35,1.36-.23,1.21-1.57,1.21-3.14,0-6.27,0-9.41,0-.3,0-.61,0-.9-.04-.1-.01-.22-.1-.26-.18-.12-.23-.22-.48-.3-.73-.65-1.93-1.3-3.86-1.95-5.8-1.8-5.37-3.59-10.74-5.39-16.11-1.21-3.62-2.42-7.23-3.63-10.85-.11-.32-.21-.65-.3-.97-.05-.16,.05-.32,.2-.34,.19-.01,.38-.03,.56-.03h10.66c.19,0,.38,.02,.52,.02,.29,.19,.34,.45,.4,.7,.31,1.25,.62,2.49,.92,3.74,1.37,5.61,2.74,11.22,4.13,16.83,.1,.4,.13,.82,.36,1.18,.02,.02,.06,.03,.1,.04,.04,0,.09,.01,.1,0,.06-.09,.12-.19,.15-.3,.3-1.21,.6-2.42,.9-3.63,.94-3.85,1.87-7.7,2.81-11.55,.49-2.02,.99-4.03,1.49-6.05,.04-.15,.06-.3,.1-.44,.12-.44,.24-.53,.73-.53,.98,0,1.97,0,2.95,0h6.35c.34,0,.68,.01,1.02,.02,.17,0,.29,.11,.34,.26,.09,.25,.17,.5,.24,.75,.23,.91,.45,1.83,.68,2.75,1.43,5.75,2.85,11.51,4.28,17.26,.12,.47,.25,.94,.39,1.41,0,.03,.05,.08,.07,.08,.07-.02,.17-.04,.2-.09,.07-.13,.13-.27,.16-.41,1.36-5.65,2.73-11.3,4.09-16.95,.32-1.32,.63-2.64,.95-3.96,.07-.29,.16-.58,.26-.86,.04-.09,.15-.19,.24-.2,.3-.04,.6-.05,.9-.05,2.53,0,5.07,0,7.6,0,.72,0,1.44,0,2.15,0,.22,0,.45,.03,.68,.05,.02,.14,.06,.26,.04,.36-.06,.26-.15,.5-.23,.75-2.46,7.26-4.92,14.52-7.38,21.78-1.24,3.65-2.46,7.3-3.69,10.95-.09,.25-.16,.5-.26,.75-.09,.22-.24,.38-.5,.39-.27,0-.53,.01-.79,.01h-9.52c-.34,0-.68,.05-1-.08h0Z" style="fill:#1359a0;"/><path d="M43.15,41.83c-3.32,.02-6.43-.79-9.39-2.24-.27-.13-.54-.28-.81-.39-.09-.04-.23-.03-.32,.02-.24,.11-.47,.25-.69,.39-2.21,1.36-4.59,2.28-7.14,2.77-1.38,.27-2.77,.37-4.17,.34-5.45-.11-10.17-2.07-14.12-5.81-2.92-2.77-4.86-6.15-5.84-10.06C.15,24.81-.11,22.75,.04,20.66c.34-4.74,1.99-8.97,5.13-12.57,3.08-3.54,6.94-5.77,11.51-6.78,.81-.18,1.63-.35,2.47-.34,1.36-.24,2.71-.1,4.07,.02,.71,.07,1.42,.19,2.12,.34,1.86,.4,3.63,1.04,5.31,1.93,.13,.07,.27,.14,.4,.21,.18,.08,.37,.09,.54,0,.16-.09,.32-.2,.48-.3,2.57-1.6,5.36-2.61,8.36-3.01C41.37,.04,42.32,0,43.26,0c4.99,.02,9.42,1.64,13.25,4.82,3.76,3.13,6.13,7.12,7.14,11.92,.38,1.83,.54,3.67,.4,5.52-.19,2.46-.75,4.85-1.77,7.11-1.9,4.2-4.84,7.45-8.84,9.74-2.22,1.27-4.59,2.11-7.13,2.46-.41,.06-.82,.13-1.23,.16-.64,.05-1.28,.06-1.92,.09h0Zm-3.42-31.03c.1,.13,.21,.24,.27,.37,.2,.37,.38,.74,.56,1.11,.51,1.06,.98,2.13,1.32,3.25,.63,2.09,.79,4.23,.62,6.39-.09,1.2-.21,2.41-.42,3.6-.11,.63-.25,1.26-.44,1.87-.69,2.22-1.72,4.27-3.12,6.13-.69,.92-.6,.88,.41,1.24,.86,.31,1.74,.52,2.64,.64,1.77,.25,3.54,.22,5.3-.15,3.68-.78,6.77-2.57,9.09-5.55,2.98-3.84,3.91-8.21,2.87-12.94-.74-3.35-2.48-6.15-5.13-8.35-2.74-2.28-5.91-3.45-9.46-3.58-1.29-.05-2.56,.11-3.82,.39-2.83,.64-5.31,1.96-7.36,4.02-2.41,2.43-3.88,5.35-4.39,8.76-.29,1.97-.2,3.91,.27,5.85,.24,1,.57,1.96,1.02,2.88,.21,.44,.11,.59-.25,.85-.46,.34-.92,.66-1.37,1-.61,.45-1.2,.92-1.8,1.37-.18,.14-.37,.26-.55,.39-.13,.09-.31,.04-.39-.1-.33-.64-.66-1.27-.97-1.92-.66-1.41-1.18-2.86-1.41-4.41-.09-.6-.12-1.2-.2-1.8-.09-.68-.08-1.36-.02-2.04,.03-.38,.07-.75,.09-1.13,.03-1.02,.23-2.03,.35-3.04,.05-.41,.15-.82,.25-1.22,.33-1.25,.79-2.44,1.35-3.6,.56-1.16,1.24-2.25,1.99-3.29,.13-.18,.27-.37,.39-.55,.09-.14,.05-.32-.08-.39-.14-.07-.27-.14-.41-.2-3.08-1.09-6.2-1.26-9.36-.38-3.96,1.11-7.02,3.43-9.11,6.99-1.45,2.47-2.17,5.13-2.16,7.99,0,.68,.08,1.36,.17,2.03,.34,2.49,1.23,4.76,2.72,6.76,2.86,3.86,6.69,6.02,11.51,6.34,1.33,.09,2.64,.02,3.94-.25,3.44-.71,6.36-2.35,8.67-5.01,2.2-2.53,3.42-5.5,3.67-8.85,.19-2.61-.21-5.12-1.31-7.51-.08-.17-.15-.35-.21-.53-.02-.06,.01-.16,.05-.21,.09-.12,.2-.23,.32-.32,1.16-.9,2.33-1.8,3.5-2.7,.12-.09,.26-.15,.41-.24h0Z" style="fill:#1359a0;"/><path d="M193.54,26.46c.11,.04,.19,.05,.24,.1,2.15,2.23,4.25,4.5,6.31,6.72,.05,.25-.07,.36-.17,.46-1.53,1.59-3.25,2.93-5.18,4.01-1.85,1.04-3.81,1.84-5.89,2.29-1,.22-2,.4-3.03,.39-.64,0-1.29,.02-1.93-.01-3.51-.14-6.77-1.12-9.68-3.12-3.64-2.51-5.96-5.94-7.09-10.19-.57-2.14-.76-4.32-.59-6.52,.34-4.34,1.97-8.11,5.04-11.23,2.28-2.32,5.02-3.85,8.14-4.71,1.75-.48,3.54-.76,5.37-.72,.11,0,.23,0,.34,0,2.22-.07,4.35,.39,6.43,1.12,2.08,.73,4.03,1.72,5.81,3.02,.76,.56,1.46,1.2,2.13,1.86,.13,.13,.24,.29,.35,.43-.54,.78-4.28,5.27-6.18,7.42-.1,.11-.21,.2-.34,.32-.11-.07-.21-.12-.28-.2-.33-.37-.63-.76-.97-1.11-1.19-1.19-2.55-2.13-4.1-2.77-1.52-.63-3.08-.72-4.66-.26-2,.59-3.42,1.87-4.36,3.71-.4,.78-.66,1.61-.79,2.47-.24,1.58-.22,3.16,.17,4.73,.36,1.42,1.03,2.67,2.08,3.71,1.59,1.56,3.5,2.18,5.69,1.96,1.18-.12,2.28-.52,3.32-1.06,1.04-.54,2-1.21,2.88-2,.3-.28,.61-.55,.91-.81h0Z" style="fill:#1359a0;"/><path d="M81.24,22.1V6.11c0-.38,.03-.75,.05-1.13,0-.15,.15-.3,.29-.3,.38-.02,.75-.03,1.13-.03h25.4c1.34,0,1.32-.11,1.31,1.28,0,2.15,0,4.31,0,6.46,0,.26-.04,.52-.07,.79,0,.06-.09,.13-.15,.16-.06,.04-.14,.05-.22,.05-.38,0-.75,.02-1.13,.02h-13.61c-.38,0-.75,.02-1.13,.03-.13,0-.3,.17-.32,.28-.02,.11-.04,.22-.04,.34,0,1.59,0,3.17,0,4.76,0,.11,.02,.23,.03,.34,.02,.17,.2,.37,.37,.38,.38,.02,.75,.04,1.13,.04,4.16,0,8.31,0,12.47,0,.34,0,.68,0,1.02,0,.43,.01,.55,.13,.57,.52,0,.15,0,.3,0,.45v6.69c0,.23,0,.45-.05,.68-.02,.09-.12,.19-.21,.23-.09,.05-.22,.06-.33,.06-.38,0-.75,.01-1.13,.01-4.12,0-8.24,0-12.36,0-.38,0-.75,.02-1.13,.04-.17,0-.36,.21-.36,.38-.02,.34-.03,.68-.03,1.02,0,2.76,0,5.52,0,8.28,0,.3,0,.61,0,.91-.02,.78-.06,.83-.85,.83-3.25,0-6.5,0-9.75,0-.15,0-.3,0-.45-.02-.23-.02-.4-.2-.42-.45-.01-.15-.02-.3-.02-.45,0-.3,0-.61,0-.91v-15.76h0Z" style="fill:#1359a0;"/></svg>