<?xml version="1.0" encoding="UTF-8"?><svg id="Layer_1" xmlns="http://www.w3.org/2000/svg" viewBox="0 0 985.71 214.61"><path d="M164.54,196.31c-1.44,.88-2.82,1.72-4.2,2.58-5.04,3.14-10.35,5.74-15.83,8.03-3.73,1.55-7.55,2.86-11.45,3.9-2.82,.75-5.67,1.44-8.56,1.94-4.37,.76-8.76,1.23-13.18,1.61-6.09,.52-12.12,.1-18.15-.47-3.36-.32-6.72-.9-10.03-1.62-3.36-.74-6.65-1.79-9.98-2.71-3.46-.96-6.76-2.33-10.04-3.76-2.98-1.29-5.93-2.68-8.76-4.3-4.98-2.84-9.8-5.92-14.29-9.51-3.51-2.81-6.96-5.7-10.07-8.94-3.88-4.04-7.52-8.3-10.75-12.9-2.36-3.36-4.56-6.82-6.53-10.42-1.22-2.23-2.36-4.5-3.41-6.81-1.67-3.67-3.18-7.41-4.36-11.26-1.09-3.54-2.14-7.09-2.87-10.74-.79-3.96-1.19-7.96-1.71-11.96C-.14,114.9,.03,110.79,.02,106.69c0-.39,.06-.78,.04-1.17-.16-2.49,.31-4.93,.52-7.4,.23-2.66,.71-5.28,1.12-7.91,.21-1.35,.49-2.69,.83-4,.85-3.27,1.71-6.53,2.76-9.75,1.59-4.89,3.66-9.58,5.85-14.22,1.13-2.41,2.51-4.71,3.93-6.97,1.83-2.92,3.73-5.8,5.76-8.58,1.69-2.31,3.58-4.47,5.45-6.64,1.44-1.68,2.94-3.32,4.49-4.89,4.45-4.51,9.36-8.48,14.53-12.14,5.22-3.69,10.81-6.75,16.6-9.42,3.59-1.66,7.31-3.04,11.09-4.26,2.35-.76,4.73-1.36,7.1-2.05,1.61-.47,3.3-.69,4.95-1.02,.57-.12,1.14-.28,1.72-.37,2.57-.39,5.14-.85,7.72-1.11,2.53-.26,5.07-.29,7.61-.47,3.46-.24,6.91-.04,10.35,.23,.13,.01,.26,.06,.39,.06,3.01-.03,5.95,.63,8.93,.95,.26,.03,.52,.05,.77,.11,2.98,.67,6,1.13,8.93,2.06,1.97,.63,4.03,.99,5.99,1.72,1.7,.63,3.45,1.13,5.15,1.78,3.51,1.36,6.98,2.83,10.34,4.55,1.16,.59,2.32,1.19,3.42,1.89,.79,.5,1.39,.38,2.14-.09,2.41-1.54,4.84-3.07,7.33-4.47,2.94-1.66,5.94-3.22,9.1-4.46,2.23-.88,4.44-1.84,6.7-2.65,2.14-.76,4.35-1.31,6.49-2.06,2.65-.93,5.41-1.41,8.13-2.02,2.21-.5,4.49-.72,6.73-1.07,.9-.14,1.8-.3,2.7-.41C210-.11,214.37,.03,218.74,0c1.17,0,2.35,.02,3.52,.08,1.75,.09,3.51,.18,5.26,.36,3.04,.32,6.1,.62,9.08,1.31,2.85,.66,5.7,1.3,8.53,2.08,2.88,.79,5.73,1.71,8.52,2.73,3.04,1.12,6.01,2.47,8.93,3.87,4.16,2,8.18,4.28,12.04,6.83,4.13,2.73,8.16,5.63,11.79,8.99,5.27,4.86,10.28,9.98,14.56,15.78,4.03,5.47,7.63,11.19,10.53,17.32,1.55,3.28,3.04,6.61,4.15,10.08,.63,1.98,1.36,3.92,2.01,5.89,.36,1.11,.71,2.23,.94,3.38,.56,2.86,1.29,5.69,1.81,8.57,.58,3.21,.74,6.47,1.28,9.68,.18,1.09,.18,2.21,.18,3.32,0,3.71,0,7.43-.06,11.14-.02,1.23-.18,2.47-.37,3.69-.37,2.37-.55,4.77-.95,7.15-.51,3.01-1.18,5.99-1.84,8.97-.43,1.96-1.04,3.89-1.7,5.78-.88,2.5-1.75,5.01-2.74,7.48-1.31,3.26-2.82,6.42-4.44,9.53-3.1,5.96-6.81,11.52-11.01,16.77-4.74,5.93-10.08,11.27-15.96,16.05-6.08,4.94-12.65,9.16-19.73,12.54-2.75,1.31-5.51,2.63-8.35,3.75-2.53,1-5.15,1.78-7.76,2.56-2.61,.78-5.24,1.56-7.91,2.12-1.97,.41-3.95,.79-5.94,1.12-3.61,.61-7.24,.86-10.87,1.17-2.07,.18-4.17,.12-6.25,.15-2.87,.04-5.74-.04-8.58-.51-.77-.13-1.56-.1-2.34-.15-.59-.04-1.18-.05-1.75-.15-2.31-.4-4.61-.83-6.91-1.26-1.72-.32-3.45-.65-5.16-1.02-1.01-.22-2.01-.51-3-.83-2.72-.86-5.48-1.6-8.13-2.72-2.87-1.21-5.79-2.29-8.63-3.56-1.66-.74-3.21-1.72-4.81-2.59-.68-.37-1.36-.73-2.1-1.13Zm-29.59-157.66c-.53-.33-.84-.59-1.19-.72-1.7-.64-3.4-1.32-5.14-1.85-4.23-1.3-8.53-2.37-12.93-2.88-3.23-.37-6.49-.62-9.74-.7-2.6-.06-5.2,.28-7.81,.33-2.56,.05-5.03,.67-7.54,1.04-1.79,.26-3.54,.87-5.31,1.27-3.57,.8-6.96,2.12-10.32,3.5-2.7,1.12-5.31,2.44-7.86,3.89-3.53,2-6.88,4.25-10.02,6.79-4.16,3.37-7.96,7.13-11.39,11.25-2.59,3.11-4.85,6.44-6.92,9.9-1.9,3.19-3.53,6.52-4.95,9.94-1.25,3-2.21,6.1-3.09,9.23-.37,1.31-.74,2.64-.94,3.98-.33,2.19-.71,4.36-1.01,6.55-.5,3.57-.64,7.13-.6,10.72,.02,1.37-.1,2.76,.12,4.1,.53,3.14,.64,6.33,1.27,9.47,.52,2.62,1.14,5.21,1.91,7.74,1.17,3.85,2.72,7.58,4.5,11.2,2.48,5.04,5.42,9.8,8.97,14.16,3.21,3.95,6.79,7.55,10.68,10.85,3.04,2.58,6.29,4.87,9.69,6.92,5.52,3.34,11.4,5.94,17.61,7.77,4.89,1.44,9.85,2.46,14.92,2.89,2.27,.19,4.55,.36,6.83,.4,1.76,.03,3.51-.17,5.27-.23,4.65-.15,9.21-.95,13.71-2.04,3.22-.78,6.41-1.73,9.48-3.01,2.1-.87,4.21-1.73,6.24-2.75,4.67-2.33,9.13-5.04,13.2-8.31,2.54-2.04,5.02-4.17,7.31-6.48,2.37-2.4,4.68-4.89,6.7-7.62,2.18-2.93,4.19-5.97,5.94-9.16,1.4-2.56,2.62-5.22,3.76-7.91,.99-2.32,1.89-4.7,2.59-7.13,.73-2.55,1.31-5.15,1.87-7.76,.52-2.43,.68-4.89,1.06-7.33,.51-3.3,.35-6.63,.29-9.95-.02-1.36-.1-2.74-.28-4.09-.34-2.64-.62-5.29-1.14-7.92-.52-2.62-1.07-5.23-1.81-7.78-1.03-3.55-2.46-6.97-3.96-10.36-.98-2.22-1.01-2.22,.84-3.64,4.91-3.77,9.83-7.53,14.75-11.29,1.81-1.38,3.62-2.75,5.42-4.11q.85,.67,1.25,1.48c2.68,5.28,5.31,10.58,7.46,16.1,1.11,2.85,2.23,5.69,2.83,8.71,.28,1.4,.74,2.76,1.01,4.16,.38,1.98,.74,3.97,.98,5.97,.27,2.26,.46,4.54,.56,6.81,.12,2.86,.23,5.73,.13,8.59-.12,3.38-.46,6.75-.71,10.13-.02,.26-.03,.52-.06,.78-.39,2.83-.77,5.67-1.19,8.5-.37,2.51-.66,5.04-1.24,7.5-.63,2.65-1.43,5.27-2.37,7.83-2.09,5.67-4.44,11.23-7.45,16.51-2.72,4.77-5.71,9.32-9.07,13.65-.36,.46-.75,.9-.79,1.5,.18,.62,.7,.75,1.19,.93,3.54,1.32,7.14,2.4,10.82,3.31,4.07,1.01,8.2,1.52,12.34,1.85,5.34,.42,10.68,.1,16-.62,.26-.04,.52-.05,.78-.11,2.23-.45,4.48-.83,6.68-1.4,2.33-.59,4.63-1.29,6.9-2.08,2.15-.75,4.22-1.7,6.35-2.5,2.88-1.09,5.52-2.66,8.13-4.23,3.13-1.88,6.12-3.97,8.95-6.29,2.88-2.36,5.63-4.86,8.11-7.63,3.23-3.59,6.14-7.44,8.67-11.55,1.26-2.05,2.49-4.13,3.54-6.3,1.73-3.56,3.26-7.22,4.36-11.03,.7-2.43,1.43-4.87,1.94-7.34,.44-2.16,.74-4.35,1.05-6.54,.78-5.66,.8-11.3,.2-16.96-.08-.78-.28-1.54-.34-2.32-.2-2.6-.8-5.13-1.37-7.67-.45-2.03-1.08-4.01-1.71-5.99-.88-2.79-1.9-5.52-3.13-8.16-2.09-4.48-4.42-8.83-7.34-12.85-2.38-3.28-4.98-6.36-7.78-9.28-2.07-2.17-4.37-4.09-6.7-5.98-2.99-2.43-6.16-4.58-9.49-6.52-4.23-2.46-8.66-4.51-13.29-6.07-2.77-.94-5.59-1.76-8.43-2.43-2.66-.62-5.36-1.08-8.07-1.41-5.33-.64-10.68-.6-16.02-.18-4.55,.36-9.01,1.32-13.44,2.42-.19,.05-.38,.08-.57,.15-3.69,1.27-7.4,2.46-10.96,4.1-3.98,1.83-7.75,4-11.37,6.43-2.66,1.78-5.14,3.78-7.57,5.85-3.14,2.68-5.96,5.66-8.57,8.83-3.35,4.08-6.21,8.51-8.71,13.17-.52,.97-1.11,1.93-1.52,2.95-1.54,3.86-3.32,7.63-4.3,11.7-.44,1.83-.89,3.66-1.33,5.49-.57,2.34-.7,4.76-1.14,7.12-.36,1.94-.47,3.88-.48,5.83,0,2.02,.02,4.04,.01,6.06-.02,3.21,.54,6.36,1.02,9.51,.45,2.95,1.18,5.86,2.05,8.73,1.17,3.87,2.52,7.66,4.36,11.26,.36,.7,.65,1.4,.65,2.25-7.22,5.51-14.42,11-21.62,16.48-.05,.04-.12,.04-.19,.05-.06,0-.13-.02-.33-.05-.17-.22-.46-.49-.64-.81-.6-1.08-1.2-2.16-1.73-3.28-1.65-3.46-3.3-6.92-4.88-10.42-.78-1.72-1.49-3.47-2.1-5.26-1.11-3.26-2.2-6.52-2.84-9.92-.54-2.88-1.21-5.73-1.36-8.66-.04-.78-.11-1.56-.19-2.34-.46-4.1-.4-8.21-.15-12.3,.25-4.03,.75-8.03,1.14-12.05,.35-3.63,.96-7.22,1.51-10.82,.43-2.85,1.27-5.59,2.15-8.3,1.65-5.07,3.67-9.99,6.09-14.76,2.98-5.88,6.45-11.44,10.45-16.68,.58-.77,1.16-1.54,1.87-2.48Z" style="fill:#1359a0;"/><path d="M985.71,164.01c-1.4,1.36-2.8,2.72-4.19,4.08-3.72,3.66-7.72,7-11.93,10.08-3.42,2.5-6.95,4.84-10.64,6.92-4.6,2.58-9.31,4.92-14.21,6.9-4.35,1.77-8.82,3.16-13.34,4.38-2.01,.54-4.08,.81-6.12,1.26-3.07,.68-6.18,1.05-9.3,1.16-3.58,.12-7.16,.46-10.75,.06-.32-.04-.65-.02-.98,0-2.75,.1-5.47-.24-8.18-.61-2.32-.32-4.64-.63-6.95-1.01-1.41-.23-2.82-.52-4.2-.89-2.7-.72-5.44-1.35-8.06-2.3-4.58-1.65-9.11-3.45-13.41-5.79-3.73-2.02-7.33-4.23-10.74-6.73-5.9-4.34-11.22-9.29-15.83-15.01-2.87-3.56-5.54-7.24-7.82-11.19-1.56-2.7-3.06-5.43-4.33-8.3-1.5-3.39-2.89-6.82-4.02-10.35-.75-2.35-1.46-4.72-1.92-7.15-.39-2.04-.9-4.06-1.3-6.1-.18-.89-.18-1.81-.32-2.71-.98-6.33-1.02-12.7-.86-19.09,.09-3.72,.53-7.41,1.11-11.07,.6-3.85,1.51-7.64,2.62-11.39,1.12-3.81,2.5-7.52,4.15-11.13,.94-2.07,2-4.08,3.09-6.08,2.18-4.01,4.73-7.79,7.47-11.43,.94-1.24,2.08-2.34,3.01-3.59,1.25-1.69,2.77-3.11,4.23-4.6,3.28-3.38,6.92-6.33,10.71-9.11,5.11-3.75,10.63-6.77,16.37-9.42,3.72-1.71,7.58-3.12,11.5-4.25,3.42-.99,6.92-1.77,10.42-2.43,3.71-.7,7.46-1.23,11.22-1.46,4.1-.26,8.21-.19,12.32-.21,2.21,0,4.43-.03,6.64,.33,2.89,.47,5.82,.75,8.68,1.36,2.73,.59,5.44,1.26,8.13,2.04,4.7,1.35,9.25,3.08,13.73,4.97,3.52,1.49,6.99,3.14,10.32,5.06,3.84,2.21,7.63,4.48,11.15,7.16,2.38,1.81,4.78,3.61,6.92,5.72,1.84,1.82,3.75,3.59,5.62,5.38v1.17c-.11,.06-.26,.08-.33,.17-1.72,2.04-3.42,4.09-5.14,6.13-3.15,3.73-6.31,7.45-9.46,11.18-2.56,3.03-5.12,6.06-7.69,9.09-.97,1.14-1.96,2.26-2.92,3.41-2.38,2.84-4.75,5.7-7.14,8.53-.11,.13-.33,.18-.55,.29-.21-.15-.45-.26-.61-.45-.66-.8-1.3-1.63-1.94-2.45-3.4-4.35-7.47-7.98-11.95-11.18-3.24-2.31-6.65-4.33-10.25-6.02-3.32-1.55-6.77-2.77-10.4-3.19-4.21-.49-8.43-.48-12.63,.48-6.19,1.41-11.53,4.36-16.24,8.52-2.81,2.48-4.9,5.56-6.8,8.76-1.8,3.04-3.03,6.34-3.92,9.73-.84,3.2-1.34,6.5-1.59,9.81-.51,6.81,.17,13.5,2.17,20.05,.95,3.11,2.13,6.1,3.83,8.91,3.38,5.56,7.69,10.13,13.42,13.3,5.1,2.82,10.57,4.33,16.4,4.39,1.69,.02,3.41,.05,5.07-.23,1.98-.34,3.96-.7,5.91-1.26,2.64-.75,5.18-1.72,7.67-2.84,3.32-1.5,6.47-3.35,9.47-5.42,4.24-2.93,8.17-6.23,11.71-9.99,.21-.23,.52-.37,.83-.59,.46,.52,.88,1.01,1.32,1.48,3.17,3.37,6.34,6.73,9.52,10.09,.4,.43,.83,.83,1.23,1.26,2.65,2.87,5.28,5.75,7.95,8.61,3.46,3.72,6.92,7.44,10.43,11.12,.84,.88,1.53,1.94,2.66,2.51v1.17Z" style="fill:#1359a0;"/><path d="M533.24,19.12c.35-.09,.65-.22,.95-.24,.65-.04,1.3-.04,1.96-.05,18.66,0,37.33,0,55.99,0,.97,0,1.94,.07,2.95,.1,.6,1.27,.82,2.55,1.14,3.79,.75,2.89,1.48,5.79,2.19,8.7,.66,2.72,1.27,5.45,1.94,8.16,.64,2.59,1.33,5.16,1.97,7.75,.63,2.52,1.22,5.05,1.83,7.58,.66,2.71,1.36,5.42,2.01,8.14,.69,2.84,1.34,5.7,2.03,8.54,.35,1.45,.77,2.88,1.14,4.33,.39,1.51,.75,3.03,1.12,4.55,.63,2.59,1.24,5.18,1.87,7.77,.7,2.91,1.4,5.82,2.12,8.72,.66,2.65,1.35,5.28,2.01,7.93,.61,2.46,1.22,4.92,1.81,7.38,.35,1.45,.64,2.92,1,4.37,.93,3.72,1.9,7.42,2.83,11.14,.38,1.51,.67,3.05,1.01,4.57,.04,.17,.19,.31,.27,.44,.47,.1,.64-.21,.78-.49,.17-.35,.31-.72,.4-1.1,.34-1.45,.65-2.91,.98-4.37,.29-1.27,.56-2.53,.88-3.79,.4-1.57,.87-3.13,1.26-4.7,.37-1.51,.68-3.04,1.02-4.56,.27-1.2,.63-2.37,.89-3.59,.57-2.72,1.41-5.39,2.07-8.1,.89-3.66,1.7-7.33,2.57-10.99,.36-1.52,.79-3.01,1.16-4.53,.4-1.64,.74-3.29,1.15-4.93,.39-1.57,.83-3.13,1.24-4.7,.36-1.38,.69-2.77,1.03-4.16,.46-1.89,.93-3.78,1.38-5.67,.37-1.58,.7-3.17,1.06-4.75,.27-1.2,.56-2.4,.86-3.59,.67-2.64,1.38-5.28,2.04-7.92,.36-1.45,.67-2.91,1-4.37,.31-1.33,.62-2.65,.94-3.98,.76-3.16,1.5-6.31,2.28-9.46,.64-2.58,1.34-5.15,1.98-7.73,.39-1.57,.74-3.16,1.08-4.74,.26-1.19,.64-1.56,1.82-1.62,.52-.03,1.04-.01,1.57-.01,17.03,0,34.06,0,51.09,0h2.21c.71,.62,.86,1.34,1.04,2.02,.61,2.39,1.15,4.8,1.75,7.2,.69,2.78,1.42,5.54,2.11,8.32,.66,2.65,1.29,5.31,1.94,7.96,.65,2.65,1.33,5.3,1.99,7.95,.68,2.78,1.34,5.57,2.03,8.35,.63,2.52,1.3,5.03,1.94,7.54,.34,1.32,.64,2.65,.97,3.98,1.03,4.16,2.09,8.33,3.11,12.49,.9,3.67,1.74,7.34,2.65,11.01,.62,2.52,1.32,5.03,1.96,7.55,.65,2.58,1.26,5.17,1.88,7.76,.32,1.32,.63,2.65,.96,3.97,.73,2.96,1.47,5.92,2.21,8.89,.73,2.96,1.46,5.92,2.2,8.88,.06,.23,.23,.44,.42,.79,.24-.27,.48-.42,.53-.61,.76-3.15,1.5-6.31,2.23-9.48,.63-2.72,1.22-5.45,1.88-8.16,.64-2.65,1.38-5.27,2.02-7.92,.66-2.71,1.24-5.44,1.87-8.16,.25-1.07,.5-2.15,.78-3.21,.4-1.57,.84-3.14,1.24-4.71,.29-1.13,.55-2.27,.81-3.41,.62-2.72,1.22-5.44,1.87-8.16,.38-1.58,.84-3.13,1.24-4.71,.31-1.19,.61-2.39,.89-3.59,.88-3.73,1.72-7.47,2.62-11.19,.65-2.71,1.39-5.4,2.05-8.11,.63-2.59,1.2-5.19,1.8-7.78,.29-1.26,.59-2.53,.91-3.79,.4-1.57,.87-3.13,1.24-4.71,.62-2.65,1.18-5.32,1.79-7.97,.29-1.27,.63-2.52,.94-3.78,.23-.95,.43-1.9,.66-2.85,.09-.38,.22-.75,.34-1.12,.27-.83,.76-1.35,1.72-1.25,.39,.04,.78,0,1.17,0,18.01,0,36.02,0,54.03,0,.65,0,1.31,0,1.95,.06,.23,.02,.46,.18,.8,.32-.27,.91-.5,1.77-.79,2.61-1.16,3.38-2.34,6.75-3.49,10.13-1.28,3.75-2.56,7.5-3.83,11.26-.56,1.66-1.09,3.34-1.66,5-1.3,3.81-2.63,7.61-3.92,11.43-1.16,3.44-2.27,6.91-3.43,10.35-1.09,3.26-2.23,6.51-3.34,9.76-1.17,3.44-2.34,6.89-3.51,10.33-1.02,3.01-2.05,6.03-3.07,9.04-1.16,3.45-2.29,6.91-3.46,10.35-.67,1.97-1.4,3.91-2.06,5.88-.9,2.7-1.74,5.42-2.64,8.13-.59,1.78-1.24,3.55-1.85,5.33-.94,2.76-1.87,5.53-2.81,8.29-.88,2.58-1.78,5.16-2.65,7.74-1.22,3.63-2.42,7.28-3.64,10.91-.58,1.72-1.21,3.43-1.79,5.16-1,2.95-1.96,5.91-2.96,8.86-.67,1.96-1.4,3.91-2.06,5.87-.9,2.7-1.74,5.43-2.65,8.13-.58,1.72-1.22,3.41-1.83,5.12-.41,1.16-.79,2.33-1.2,3.5-.25,.73-.51,1.46-.74,2.1-.79,.47-1.53,.31-2.23,.32-4.57,.02-9.14,0-13.7,0-13.77,0-27.54,0-41.31,0-.84,0-1.68-.04-2.53-.07-.19-.46-.38-.8-.47-1.17-1.18-4.73-2.33-9.48-3.5-14.21-1.3-5.24-2.61-10.48-3.93-15.72-1.05-4.16-2.09-8.33-3.15-12.48-1.17-4.6-2.37-9.19-3.53-13.79-.65-2.59-1.24-5.19-1.89-7.78-.64-2.59-1.33-5.16-1.99-7.75-.65-2.59-1.27-5.18-1.92-7.76-.65-2.58-1.34-5.16-1.99-7.74-.66-2.65-1.29-5.3-1.95-7.95-.59-2.39-1.19-4.77-1.83-7.32-.32,.22-.61,.34-.77,.56-.19,.25-.3,.58-.38,.89-.62,2.39-1.24,4.78-1.84,7.17-.6,2.39-1.19,4.79-1.8,7.17-.37,1.45-.79,2.88-1.17,4.32-.79,3.01-1.59,6.03-2.36,9.05-1.13,4.47-2.23,8.94-3.37,13.41-.64,2.51-1.37,5.01-2.02,7.52-.41,1.57-.73,3.16-1.11,4.73-.27,1.13-.57,2.26-.88,3.39-.4,1.44-.85,2.86-1.21,4.31-.64,2.52-1.22,5.05-1.86,7.57-.37,1.45-.81,2.87-1.18,4.32-.39,1.5-.74,3.02-1.12,4.53-.28,1.13-.57,2.26-.87,3.39-.94,3.51-1.9,7.02-2.82,10.54-.65,2.51-1.23,5.04-1.86,7.56-.14,.57-.4,1.1-.56,1.67-.45,1.57-.44,1.59-2.06,1.59-14.81,0-29.63,0-44.44,0-3.92,0-7.83,0-11.75,0-.58,0-1.16-.04-1.83-.07-.37-.92-.75-1.81-1.07-2.71-1.01-2.94-2.02-5.89-2.99-8.84-1.16-3.51-2.26-7.04-3.43-10.55-1.19-3.57-2.45-7.12-3.65-10.69-.83-2.46-1.63-4.93-2.45-7.4-1.26-3.75-2.54-7.5-3.81-11.26-.56-1.66-1.1-3.33-1.66-4.99-1.26-3.76-2.53-7.52-3.79-11.29-1.98-5.92-3.96-11.85-5.94-17.77-1.45-4.32-2.91-8.63-4.36-12.94-1.14-3.39-2.26-6.79-3.4-10.18-.99-2.95-2.02-5.89-3-8.85-.9-2.71-1.74-5.43-2.64-8.14-.57-1.72-1.23-3.42-1.83-5.14-.66-1.9-1.31-3.8-1.95-5.71-.91-2.7-1.8-5.41-2.7-8.12-.96-2.89-1.91-5.79-2.87-8.68-.61-1.84-1.25-3.68-1.87-5.53-.7-2.09-1.36-4.19-2.06-6.28-.64-1.91-1.34-3.79-1.95-5.71-.51-1.59-1.19-3.14-1.47-4.9Z" style="fill:#1359a0;"/><path d="M529.82,19.19c.08,.37,.17,.62,.17,.88,0,13.95,0,27.89,0,41.84,0,.25-.08,.51-.14,.84-.36,.11-.71,.28-1.08,.31-.71,.05-1.43,.02-2.15,.02-25.84,0-51.68,0-77.52,0-.77,0-1.54,.03-2.43,.05-.08,.61-.19,1.11-.19,1.6-.02,2.93,0,5.87,0,8.8,0,5.8,0,11.6,0,17.4,0,2.27-.32,2.66,2.54,2.62,5.55-.08,11.09-.03,16.64-.03,18.66,0,37.32,0,55.99,0,.72,0,1.44,0,2.15,.06,.64,.05,.9,.35,.96,1.01,.04,.45,.03,.91,.03,1.37,0,13.1,0,26.2,0,39.3v1.87c-.47,.16-.87,.37-1.29,.41-.71,.07-1.43,.04-2.15,.04-23.88,0-47.76,0-71.65,0-.97,0-1.94,.06-2.99,.1-.09,.48-.2,.84-.22,1.2-.03,.65-.01,1.3-.01,1.95,0,17.14,0,34.28,0,51.42,0,.77,.12,1.56-.23,2.42-.35,.06-.72,.15-1.09,.18-.52,.03-1.04,.01-1.57,.01-11.55,0-23.1,0-34.65,0-6.2,0-12.4-.04-18.59-.07-.58,0-1.16-.05-1.83-.08-.1-.43-.22-.78-.25-1.15-.04-.58-.02-1.17-.02-1.76,0-51.23,0-102.45,0-153.68,0-5.67,.03-11.34,.06-17.01,0-.64,.06-1.28,.09-2,.46-.11,.82-.24,1.19-.27,.45-.05,.91-.02,1.37-.02,45.35,0,90.7,0,136.05,0,.9,0,1.82-.14,2.81,.35Z" style="fill:#1359a0;"/></svg>